<svg width="135" height="135" viewBox="0 0 135 135" fill="none" xmlns="http://www.w3.org/2000/svg">
<path d="M16.875 16.875H118.125V118.125H16.875V16.875ZM43.4813 101.475C45.7313 106.256 50.175 110.194 57.7688 110.194C66.2063 110.194 72 105.694 72 95.85V63.3375H62.4375V95.625C62.4375 100.463 60.4687 101.7 57.375 101.7C54.1125 101.7 52.7625 99.45 51.2437 96.8062L43.4813 101.475V101.475ZM77.1188 100.463C79.9313 105.975 85.6125 110.194 94.5 110.194C103.5 110.194 110.25 105.525 110.25 96.9187C110.25 88.9875 105.694 85.4437 97.5938 81.9562L95.2313 80.9438C91.125 79.2 89.3813 78.0187 89.3813 75.2062C89.3813 72.9 91.125 71.1 93.9375 71.1C96.6375 71.1 98.4375 72.2812 100.069 75.2062L107.438 70.3125C104.344 64.9125 99.9563 62.8313 93.9375 62.8313C85.4438 62.8313 79.9875 68.2312 79.9875 75.375C79.9875 83.1375 84.5437 86.7937 91.4062 89.7187L93.7688 90.7312C98.1563 92.6437 100.744 93.825 100.744 97.0875C100.744 99.7875 98.2125 101.756 94.275 101.756C89.6063 101.756 86.9063 99.3375 84.8813 95.9625L77.1188 100.463Z" fill="#222F3E"/>
</svg>
