<svg width="135" height="135" viewBox="0 0 135 135" fill="none" xmlns="http://www.w3.org/2000/svg">
<path d="M122.625 103.275L90.1687 45.45C89.6062 45 87.9187 41.7937 84.5437 41.7937C83.1374 41.7937 81.1687 42.3562 79.1437 45.45L74.9812 52.0875L63.6187 31.7813C63.3374 31.2188 61.3687 28.125 57.9937 28.125C56.5874 28.125 54.3374 28.6875 52.6499 31.7813L12.2625 102.994C11.9812 103.556 10.2937 106.875 11.9812 109.688C12.5437 111.094 14.2312 112.5 17.9437 112.5H117.281C117.844 112.5 121.5 112.5 123.187 109.688C123.75 108.338 124.312 106.088 122.625 103.275ZM45.5625 102.994L44.7187 106.088H18.225L58.2749 35.6625L71.2124 58.8938L45.5625 102.994ZM51.8062 106.088L74.9249 65.5875L98.4374 106.088H51.8062ZM105.412 106.088L104.287 102.994L78.7499 58.8375L84.5437 49.1062L116.719 106.088H105.412Z" fill="#222F3E"/>
</svg>
