<svg width="135" height="135" viewBox="0 0 135 135" fill="none" xmlns="http://www.w3.org/2000/svg">
<path d="M67.5 11.25C74.8869 11.25 82.2014 12.7049 89.0259 15.5318C95.8505 18.3586 102.051 22.5019 107.275 27.7252C112.498 32.9485 116.641 39.1495 119.468 45.9741C122.295 52.7986 123.75 60.1131 123.75 67.5C123.75 82.4184 117.824 96.7258 107.275 107.275C96.7258 117.824 82.4184 123.75 67.5 123.75C60.1131 123.75 52.7986 122.295 45.9741 119.468C39.1495 116.641 32.9485 112.498 27.7252 107.275C17.1763 96.7258 11.25 82.4184 11.25 67.5C11.25 52.5816 17.1763 38.2742 27.7252 27.7252C38.2742 17.1763 52.5816 11.25 67.5 11.25ZM56.25 86.2312C57.15 89.2688 57.0375 92.0813 56.25 94.6687C56.25 94.95 56.025 95.2312 55.9125 95.625C55.8 95.625 55.6875 96.0188 55.5187 96.3C54.9 97.65 54 98.9438 52.9312 100.069C49.6688 103.669 45 105.019 43.1438 103.894C41.0063 102.656 42.1875 97.5938 45.9 93.6C49.95 89.325 55.8 86.5125 55.8 86.5125L56.25 86.2312ZM102.769 35.325C100.238 25.3125 83.6438 22.05 68.0063 27.6187C58.6688 30.9375 48.5438 36.1125 41.2875 42.9188C32.6813 51.0187 31.275 58.05 31.8375 60.975C33.75 71.325 48.0375 78.1312 53.8875 83.1375V83.1937C52.2 84.0375 39.6 90.3937 36.5625 96.9187C33.525 103.781 37.125 108.731 39.375 109.406C46.9125 111.431 54.5062 107.775 58.5562 101.644C62.4937 95.7937 62.2125 88.2 60.4688 84.375C62.8312 83.8125 65.5875 83.5312 69.075 83.925C78.975 85.1062 80.8875 91.2375 80.4938 93.825C80.1562 96.4125 78.075 97.8187 77.4 98.2687C76.725 98.6625 76.5 98.8312 76.5563 99.1687C76.6125 99.6187 76.95 99.6188 77.5125 99.5063C78.3562 99.3375 82.7438 97.425 82.9125 92.6437C83.1375 86.5687 77.3438 79.8187 67.1063 79.9875C62.8875 80.1 60.2437 80.4937 58.3312 81.225L57.8812 80.7188C51.525 73.9688 39.825 69.1875 40.3313 60.075C40.5 56.7563 41.625 48.0938 62.8312 37.5188C80.1562 28.8563 94.05 31.2188 96.4688 36.5625C99.9 44.0438 89.0438 58.05 71.0438 60.075C64.1813 60.8625 60.525 58.1625 59.625 57.2062C58.6688 56.25 58.5563 56.0812 58.2188 56.25C57.6 56.6437 57.9938 57.5438 58.2188 58.1063C58.725 59.5125 60.975 61.875 64.6875 63.225C68.0062 64.2937 76.1063 64.9125 85.8375 61.1437C96.75 56.925 105.3 45.1688 102.769 35.325Z" fill="#222F3E"/>
</svg>
